<?xml version="1.0" encoding="UTF-8"?>
<svg xmlns="http://www.w3.org/2000/svg" xmlns:xlink="http://www.w3.org/1999/xlink" viewBox="0 0 50 50" width="50px" height="50px">
<g id="surface33086999">
<path style=" stroke:none;fill-rule:nonzero;fill:rgb(100%,100%,100%);fill-opacity:1;" d="M 46.691406 0.738281 C 46.492188 0.515625 46.203125 0.390625 45.902344 0.390625 L 4.097656 0.390625 C 3.796875 0.390625 3.507812 0.515625 3.308594 0.738281 C 3.101562 0.957031 3.003906 1.253906 3.03125 1.554688 L 6.796875 43.742188 C 6.835938 44.183594 7.144531 44.550781 7.570312 44.679688 L 24.703125 49.566406 C 24.796875 49.597656 24.894531 49.609375 24.996094 49.609375 C 25.097656 49.609375 25.191406 49.597656 25.289062 49.566406 L 42.433594 44.679688 C 42.859375 44.550781 43.164062 44.183594 43.207031 43.742188 L 46.96875 1.554688 C 46.996094 1.253906 46.898438 0.957031 46.691406 0.738281 Z M 37.675781 15.28125 L 17.546875 15.28125 L 18.027344 20.726562 L 37.191406 20.726562 L 35.753906 36.824219 L 24.992188 40.074219 L 24.886719 40.042969 L 14.25 36.820312 L 13.667969 30.261719 L 18.882812 30.261719 L 19.105469 32.808594 L 25.054688 34.054688 L 30.894531 32.808594 L 31.515625 25.917969 L 13.28125 25.917969 L 11.863281 10.078125 L 38.140625 10.078125 Z M 37.675781 15.28125 "/>
</g>
</svg>
