<?xml version="1.0" encoding="UTF-8"?>
<svg xmlns="http://www.w3.org/2000/svg" xmlns:xlink="http://www.w3.org/1999/xlink" viewBox="0 0 50 50" width="50px" height="50px">
<g id="surface33238427">
<path style=" stroke:none;fill-rule:nonzero;fill:rgb(100%,100%,100%);fill-opacity:1;" d="M 15.546875 2.757812 C 14.964844 2.796875 14.390625 2.945312 13.871094 3.210938 C 12.785156 3.765625 12.097656 4.804688 11.710938 6.007812 C 11.324219 7.207031 11.191406 8.613281 11.21875 10.175781 C 11.253906 12.03125 11.535156 14.125 11.988281 16.316406 C 10.246094 16.644531 8.648438 17.0625 7.234375 17.5625 C 5.339844 18.230469 3.765625 19.042969 2.59375 20.042969 C 1.421875 21.042969 0.628906 22.296875 0.554688 23.71875 C 0.476562 25.199219 1.304688 26.507812 2.417969 27.601562 C 3.535156 28.6875 5.003906 29.609375 6.59375 30.230469 C 6.949219 30.375 7.351562 30.316406 7.65625 30.078125 C 7.953125 29.839844 8.101562 29.460938 8.042969 29.078125 C 7.980469 28.703125 7.726562 28.386719 7.363281 28.25 C 6.03125 27.734375 4.765625 26.933594 3.898438 26.085938 C 3.039062 25.234375 2.640625 24.382812 2.671875 23.828125 C 2.710938 23.117188 3.09375 22.402344 3.972656 21.65625 C 4.851562 20.902344 6.210938 20.167969 7.9375 19.5625 C 9.25 19.097656 10.777344 18.703125 12.464844 18.390625 C 12.953125 20.316406 13.554688 22.285156 14.261719 24.21875 C 10.84375 30.363281 9.03125 35.8125 9.101562 39.855469 C 9.140625 42.34375 10.03125 44.394531 11.699219 45.480469 C 12.839844 46.214844 14.210938 46.492188 15.636719 46.203125 C 17.066406 45.914062 18.5625 45.136719 20.3125 43.882812 C 20.632812 43.664062 20.804688 43.296875 20.773438 42.914062 C 20.738281 42.53125 20.5 42.195312 20.152344 42.042969 C 19.800781 41.886719 19.394531 41.925781 19.085938 42.160156 C 17.460938 43.3125 16.183594 43.929688 15.214844 44.128906 C 14.246094 44.324219 13.597656 44.183594 12.859375 43.699219 C 11.917969 43.089844 11.253906 41.839844 11.21875 39.824219 C 11.167969 36.757812 12.535156 32.140625 15.277344 26.816406 C 15.632812 27.675781 16.007812 28.515625 16.398438 29.335938 C 19.226562 35.277344 22.789062 40.140625 26.257812 43.316406 C 27.992188 44.902344 29.703125 46.070312 31.351562 46.71875 C 33 47.363281 34.660156 47.496094 36.058594 46.785156 L 36.117188 46.75 L 36.171875 46.71875 C 37.359375 45.914062 38.097656 44.585938 38.5 42.992188 C 38.894531 41.402344 38.984375 39.507812 38.796875 37.375 C 38.429688 33.117188 36.964844 27.894531 34.441406 22.433594 C 34.195312 21.902344 33.566406 21.671875 33.03125 21.917969 C 32.503906 22.164062 32.269531 22.792969 32.519531 23.328125 C 34.953125 28.597656 36.34375 33.636719 36.683594 37.5625 C 36.855469 39.523438 36.757812 41.207031 36.441406 42.472656 C 36.128906 43.703125 35.625 44.480469 35.035156 44.90625 C 34.335938 45.234375 33.394531 45.242188 32.125 44.742188 C 30.835938 44.234375 29.289062 43.214844 27.6875 41.75 C 24.488281 38.820312 21.039062 34.140625 18.308594 28.425781 C 17.699219 27.136719 17.132812 25.773438 16.601562 24.386719 C 17.25 23.257812 17.933594 22.105469 18.695312 20.929688 C 19.453125 19.765625 20.230469 18.652344 21.023438 17.597656 C 21.289062 17.59375 21.554688 17.578125 21.824219 17.578125 C 22.960938 17.574219 24.132812 17.609375 25.328125 17.671875 C 31.675781 18.003906 37.375 19.21875 41.367188 20.882812 C 43.367188 21.714844 44.933594 22.664062 45.921875 23.601562 C 46.914062 24.535156 47.296875 25.386719 47.261719 26.167969 C 47.21875 26.882812 46.890625 27.578125 46.140625 28.308594 C 45.386719 29.039062 44.210938 29.761719 42.640625 30.371094 C 42.269531 30.5 41.996094 30.8125 41.933594 31.199219 C 41.867188 31.582031 42.019531 31.972656 42.328125 32.214844 C 42.636719 32.449219 43.042969 32.503906 43.402344 32.351562 C 45.164062 31.664062 46.585938 30.835938 47.621094 29.832031 C 48.652344 28.824219 49.304688 27.601562 49.375 26.273438 C 49.453125 24.707031 48.648438 23.261719 47.375 22.054688 C 46.109375 20.855469 44.339844 19.824219 42.1875 18.925781 C 37.875 17.128906 31.984375 15.894531 25.433594 15.554688 C 24.507812 15.503906 23.601562 15.492188 22.695312 15.480469 C 24.441406 13.363281 26.222656 11.523438 27.929688 10.042969 C 30.984375 7.417969 33.851562 5.984375 35.636719 5.921875 L 35.640625 5.921875 C 36.304688 5.894531 36.800781 6.027344 37.214844 6.292969 C 38.554688 7.167969 39.683594 9.503906 37.851562 12.828125 C 37.648438 13.160156 37.644531 13.582031 37.84375 13.914062 C 38.039062 14.25 38.402344 14.453125 38.792969 14.441406 C 39.183594 14.425781 39.535156 14.203125 39.707031 13.851562 C 41.945312 9.796875 40.738281 6.050781 38.371094 4.515625 L 38.367188 4.515625 C 37.546875 3.980469 36.566406 3.761719 35.5625 3.800781 L 35.558594 3.800781 C 32.847656 3.902344 29.785156 5.652344 26.546875 8.4375 C 24.367188 10.320312 22.121094 12.71875 19.964844 15.496094 C 17.902344 15.5625 15.9375 15.726562 14.101562 15.976562 C 13.652344 13.847656 13.367188 11.839844 13.339844 10.144531 C 13.316406 8.722656 13.453125 7.519531 13.730469 6.65625 C 14.007812 5.800781 14.378906 5.335938 14.832031 5.105469 C 15.09375 4.972656 15.375 4.894531 15.703125 4.867188 C 16.789062 4.785156 18.917969 5.949219 21.140625 7.796875 C 21.433594 8.042969 21.835938 8.113281 22.191406 7.980469 C 22.554688 7.855469 22.8125 7.539062 22.875 7.164062 C 22.9375 6.785156 22.792969 6.40625 22.5 6.164062 C 20.15625 4.222656 17.90625 2.578125 15.546875 2.757812 Z M 18.328125 17.695312 C 17.851562 18.375 17.382812 19.0625 16.917969 19.777344 C 16.480469 20.453125 16.082031 21.121094 15.675781 21.785156 C 15.261719 20.53125 14.90625 19.289062 14.585938 18.058594 C 15.777344 17.898438 17.03125 17.777344 18.328125 17.695312 Z M 25 21.820312 C 23.246094 21.820312 21.820312 23.246094 21.820312 25 C 21.820312 26.753906 23.246094 28.179688 25 28.179688 C 26.753906 28.179688 28.179688 26.753906 28.179688 25 C 28.179688 23.246094 26.753906 21.820312 25 21.820312 Z M 25 21.820312 "/>
</g>
</svg>
