<?xml version="1.0" encoding="UTF-8"?>
<svg xmlns="http://www.w3.org/2000/svg" xmlns:xlink="http://www.w3.org/1999/xlink" viewBox="0 0 50 50" width="50px" height="50px">
<g id="surface33248135">
<path style=" stroke:none;fill-rule:nonzero;fill:rgb(100%,100%,100%);fill-opacity:1;" d="M 25 0.621094 C 11.550781 0.621094 0.621094 11.550781 0.621094 25 C 0.621094 38.449219 11.550781 49.378906 25 49.378906 C 38.449219 49.378906 49.378906 38.449219 49.378906 25 C 49.378906 11.550781 38.449219 0.621094 25 0.621094 Z M 25 2.738281 C 37.304688 2.738281 47.261719 12.695312 47.261719 25 C 47.261719 25.074219 47.253906 25.148438 47.253906 25.226562 C 46.574219 25.164062 45.792969 25.105469 44.796875 25.066406 C 43.386719 25.019531 41.613281 25.03125 39.601562 25.132812 C 39.675781 24.613281 39.726562 24.085938 39.726562 23.542969 C 39.832031 21.558594 39.164062 19.703125 38.082031 18.0625 C 38.34375 17.15625 38.648438 16.007812 38.726562 14.699219 C 38.8125 13.210938 38.683594 11.5625 37.488281 10.445312 L 37.183594 10.160156 L 36.765625 10.160156 C 33.921875 10.160156 31.976562 11.351562 30.785156 12.292969 C 29.066406 11.628906 27.132812 11.21875 25 11.21875 C 22.855469 11.21875 20.902344 11.636719 19.113281 12.296875 C 17.925781 11.355469 15.976562 10.160156 13.128906 10.160156 L 12.710938 10.160156 L 12.40625 10.445312 C 11.242188 11.523438 11.136719 13.128906 11.207031 14.609375 C 11.273438 15.917969 11.5625 17.105469 11.816406 18.054688 C 10.714844 19.726562 10.054688 21.632812 10.054688 23.515625 C 10.054688 24.058594 10.105469 24.585938 10.179688 25.109375 C 8.265625 25.019531 6.558594 25 5.203125 25.050781 C 4.207031 25.085938 3.425781 25.144531 2.746094 25.207031 C 2.746094 25.136719 2.738281 25.070312 2.738281 25 C 2.738281 12.695312 12.695312 2.738281 25 2.738281 Z M 13.761719 12.417969 C 15.898438 12.621094 17.507812 13.578125 18.253906 14.238281 L 18.75 14.675781 L 19.363281 14.425781 C 21.039062 13.738281 22.910156 13.339844 25 13.339844 C 27.089844 13.339844 28.960938 13.738281 30.511719 14.417969 L 31.132812 14.691406 L 31.640625 14.238281 C 32.382812 13.574219 33.996094 12.621094 36.136719 12.417969 C 36.421875 12.890625 36.667969 13.5625 36.609375 14.574219 C 36.535156 15.789062 36.210938 17.113281 35.964844 17.898438 L 35.808594 18.410156 L 36.125 18.84375 C 37.171875 20.273438 37.707031 21.820312 37.617188 23.457031 L 37.613281 23.488281 L 37.613281 23.515625 C 37.613281 26.160156 36.660156 28.277344 34.632812 29.847656 C 32.605469 31.414062 29.402344 32.421875 24.894531 32.421875 C 20.386719 32.421875 17.183594 31.414062 15.152344 29.847656 C 13.125 28.277344 12.175781 26.160156 12.175781 23.515625 C 12.175781 21.964844 12.734375 20.253906 13.769531 18.84375 L 14.082031 18.421875 L 13.933594 17.917969 C 13.6875 17.082031 13.386719 15.730469 13.324219 14.507812 C 13.277344 13.492188 13.515625 12.847656 13.761719 12.417969 Z M 7.917969 26.082031 C 8.667969 26.09375 9.527344 26.132812 10.386719 26.175781 C 10.46875 26.507812 10.5625 26.832031 10.675781 27.148438 C 7.167969 27.222656 4.546875 27.574219 2.929688 27.878906 C 2.863281 27.347656 2.808594 26.8125 2.777344 26.269531 C 3.972656 26.15625 5.65625 26.054688 7.917969 26.082031 Z M 42.082031 26.097656 C 44.34375 26.070312 46.027344 26.175781 47.21875 26.289062 C 47.191406 26.820312 47.136719 27.347656 47.070312 27.871094 C 45.394531 27.5625 42.703125 27.210938 39.105469 27.15625 C 39.214844 26.84375 39.308594 26.523438 39.390625 26.199219 C 40.339844 26.148438 41.265625 26.109375 42.082031 26.097656 Z M 11.125 28.199219 C 11.757812 29.46875 12.664062 30.601562 13.859375 31.523438 C 15.492188 32.785156 17.613281 33.667969 20.207031 34.140625 C 19.867188 34.488281 19.558594 34.871094 19.285156 35.273438 L 19.21875 35.21875 C 19.226562 35.210938 18.691406 35.480469 17.898438 35.550781 C 17.101562 35.621094 16.117188 35.601562 15.25 35.601562 C 13.949219 35.601562 13.378906 34.988281 12.464844 33.871094 C 11.957031 33.1875 11.339844 32.632812 10.742188 32.214844 C 10.128906 31.785156 9.605469 31.484375 8.957031 31.375 L 8.871094 31.359375 L 8.78125 31.359375 C 8.285156 31.359375 7.808594 31.394531 7.359375 31.90625 C 7.136719 32.160156 6.984375 32.632812 7.082031 33.035156 C 7.183594 33.433594 7.4375 33.679688 7.664062 33.832031 C 9.113281 34.796875 9.367188 36.710938 10.277344 38.410156 C 11.125 40.097656 12.953125 40.898438 14.824219 40.898438 L 17.578125 40.898438 L 17.578125 45.992188 C 10.125 43.359375 4.503906 36.875 3.09375 28.925781 C 4.714844 28.621094 7.433594 28.253906 11.125 28.199219 Z M 38.65625 28.207031 C 42.433594 28.242188 45.226562 28.609375 46.910156 28.917969 C 45.5 36.875 39.875 43.359375 32.421875 45.992188 L 32.421875 40.476562 C 32.421875 38.796875 31.867188 36.945312 30.910156 35.398438 C 30.617188 34.929688 30.273438 34.488281 29.890625 34.089844 C 32.347656 33.605469 34.363281 32.738281 35.929688 31.523438 C 37.121094 30.601562 38.023438 29.472656 38.65625 28.207031 Z M 23.621094 34.644531 L 26.589844 34.644531 C 27.453125 34.644531 28.371094 35.332031 29.109375 36.515625 C 29.84375 37.703125 30.300781 39.292969 30.300781 40.476562 L 30.300781 46.621094 C 28.601562 47.035156 26.828125 47.261719 25 47.261719 C 23.171875 47.261719 21.398438 47.035156 19.699219 46.621094 L 19.699219 40.476562 C 19.699219 39.320312 20.195312 37.730469 20.980469 36.542969 C 21.765625 35.351562 22.757812 34.644531 23.621094 34.644531 Z M 11.546875 35.898438 C 12.464844 36.851562 13.574219 37.71875 15.25 37.71875 C 16.074219 37.71875 17.105469 37.75 18.085938 37.660156 C 18.089844 37.660156 18.09375 37.660156 18.09375 37.660156 C 17.964844 38.03125 17.871094 38.402344 17.789062 38.78125 L 14.824219 38.78125 C 13.515625 38.78125 12.59375 38.308594 12.167969 37.457031 L 12.160156 37.441406 L 12.152344 37.429688 C 11.980469 37.105469 11.75 36.460938 11.546875 35.898438 Z M 11.546875 35.898438 "/>
</g>
</svg>
