<?xml version="1.0" encoding="UTF-8"?>
<svg xmlns="http://www.w3.org/2000/svg" xmlns:xlink="http://www.w3.org/1999/xlink" viewBox="0 0 50 50" width="50px" height="50px">
<g id="surface33255533">
<path style=" stroke:none;fill-rule:nonzero;fill:rgb(100%,100%,100%);fill-opacity:1;" d="M 25 0.621094 C 11.546875 0.621094 0.621094 11.546875 0.621094 25 C 0.621094 38.453125 11.546875 49.378906 25 49.378906 C 38.453125 49.378906 49.378906 38.453125 49.378906 25 C 49.378906 11.546875 38.453125 0.621094 25 0.621094 Z M 25 2.738281 C 33.46875 2.738281 40.820312 7.453125 44.585938 14.398438 L 25 14.398438 C 24.960938 14.398438 24.917969 14.402344 24.878906 14.40625 C 19.421875 14.46875 14.941406 18.675781 14.449219 24.023438 L 7.015625 11.910156 C 11.0625 6.359375 17.59375 2.738281 25 2.738281 Z M 5.734375 13.871094 L 15.964844 30.542969 C 16 30.605469 16.042969 30.660156 16.085938 30.710938 C 16.089844 30.714844 16.089844 30.714844 16.089844 30.714844 C 17.976562 33.648438 21.261719 35.601562 25 35.601562 C 26.496094 35.601562 27.921875 35.285156 29.214844 34.71875 L 22.160156 47.074219 C 11.199219 45.679688 2.738281 36.34375 2.738281 25 C 2.738281 20.941406 3.839844 17.148438 5.734375 13.871094 Z M 25 16.519531 C 29.695312 16.519531 33.480469 20.304688 33.480469 25 C 33.480469 26.507812 33.085938 27.917969 32.402344 29.140625 C 32.402344 29.140625 32.402344 29.140625 32.402344 29.144531 C 32.386719 29.164062 32.375 29.183594 32.363281 29.203125 C 30.90625 31.761719 28.164062 33.480469 25 33.480469 C 20.304688 33.480469 16.519531 29.695312 16.519531 25 C 16.519531 20.304688 20.304688 16.519531 25 16.519531 Z M 31.332031 16.519531 L 45.585938 16.519531 C 46.664062 19.132812 47.261719 21.996094 47.261719 25 C 47.261719 37.304688 37.304688 47.261719 25 47.261719 C 24.832031 47.261719 24.667969 47.25 24.5 47.246094 L 34.203125 30.257812 C 34.226562 30.214844 34.25 30.175781 34.265625 30.132812 C 35.113281 28.609375 35.601562 26.859375 35.601562 25 C 35.601562 21.53125 33.914062 18.457031 31.332031 16.519531 Z M 31.332031 16.519531 "/>
</g>
</svg>
