<?xml version="1.0" encoding="UTF-8"?>
<svg xmlns="http://www.w3.org/2000/svg" xmlns:xlink="http://www.w3.org/1999/xlink" viewBox="0 0 32 32" width="32px" height="32px">
<g id="surface33098884">
<path style=" stroke:none;fill-rule:nonzero;fill:rgb(100%,100%,100%);fill-opacity:1;" d="M 12.253906 -0.0507812 C 9.007812 -0.0507812 6.371094 2.589844 6.371094 5.835938 C 6.371094 7.609375 7.164062 9.199219 8.40625 10.277344 C 6.558594 11.273438 5.300781 13.222656 5.300781 15.464844 C 5.300781 17.457031 6.296875 19.214844 7.8125 20.28125 C 6.296875 21.34375 5.300781 23.105469 5.300781 25.09375 C 5.300781 28.339844 7.941406 30.980469 11.183594 30.980469 C 14.429688 30.980469 17.070312 28.339844 17.070312 25.09375 L 17.070312 11.71875 L 20.816406 11.71875 C 24.058594 11.71875 26.699219 9.082031 26.699219 5.835938 C 26.699219 2.589844 24.058594 -0.0507812 20.816406 -0.0507812 Z M 12.253906 2.089844 L 20.816406 2.089844 C 22.878906 2.089844 24.558594 3.769531 24.558594 5.835938 C 24.558594 7.898438 22.878906 9.578125 20.816406 9.578125 L 12.253906 9.578125 C 10.191406 9.578125 8.511719 7.898438 8.511719 5.835938 C 8.511719 3.769531 10.191406 2.089844 12.253906 2.089844 Z M 11.183594 11.71875 L 14.929688 11.71875 L 14.929688 19.210938 L 11.183594 19.210938 C 9.121094 19.210938 7.441406 17.53125 7.441406 15.464844 C 7.441406 13.398438 9.121094 11.71875 11.183594 11.71875 Z M 21.351562 11.71875 C 18.984375 11.71875 17.070312 13.636719 17.070312 16 C 17.070312 18.363281 18.984375 20.28125 21.351562 20.28125 C 23.714844 20.28125 25.628906 18.363281 25.628906 16 C 25.628906 13.636719 23.714844 11.71875 21.351562 11.71875 Z M 11.183594 21.351562 L 14.929688 21.351562 L 14.929688 25.09375 C 14.929688 27.160156 13.25 28.839844 11.183594 28.839844 C 9.121094 28.839844 7.441406 27.160156 7.441406 25.09375 C 7.441406 23.03125 9.121094 21.351562 11.183594 21.351562 Z M 11.183594 21.351562 "/>
</g>
</svg>
