<?xml version="1.0" encoding="UTF-8"?>
<svg xmlns="http://www.w3.org/2000/svg" xmlns:xlink="http://www.w3.org/1999/xlink" viewBox="0 0 50 50" width="50px" height="50px">
<g id="surface33242137">
<path style=" stroke:none;fill-rule:nonzero;fill:rgb(100%,100%,100%);fill-opacity:1;" d="M 25 2.738281 C 25.601562 2.738281 26.164062 2.972656 26.585938 3.398438 L 46.601562 23.414062 C 47.480469 24.289062 47.480469 25.710938 46.601562 26.585938 L 26.585938 46.601562 C 26.164062 47.027344 25.601562 47.261719 25 47.261719 C 24.398438 47.261719 23.835938 47.027344 23.414062 46.601562 L 3.398438 26.585938 C 2.519531 25.710938 2.519531 24.289062 3.398438 23.414062 L 16.457031 10.355469 L 18.867188 12.765625 C 18.289062 14.917969 18.871094 17.265625 20.503906 18.898438 C 20.890625 19.285156 21.335938 19.621094 21.820312 19.898438 L 21.820312 30.105469 C 19.890625 31.21875 18.640625 33.292969 18.640625 35.601562 C 18.640625 39.105469 21.492188 41.960938 25 41.960938 C 28.507812 41.960938 31.359375 39.105469 31.359375 35.601562 C 31.359375 33.292969 30.109375 31.21875 28.179688 30.105469 L 28.179688 22.078125 L 29.46875 23.363281 C 28.886719 25.515625 29.472656 27.867188 31.101562 29.496094 C 32.304688 30.699219 33.902344 31.359375 35.601562 31.359375 C 37.296875 31.359375 38.894531 30.699219 40.097656 29.496094 C 42.578125 27.015625 42.578125 22.984375 40.097656 20.503906 C 38.898438 19.304688 37.3125 18.648438 35.621094 18.648438 C 35.0625 18.648438 34.503906 18.722656 33.964844 18.867188 L 31.132812 16.035156 C 31.710938 13.882812 31.128906 11.535156 29.496094 9.902344 C 28.300781 8.707031 26.714844 8.046875 25.019531 8.046875 C 24.460938 8.046875 23.902344 8.121094 23.363281 8.269531 L 20.953125 5.859375 L 23.414062 3.398438 C 23.835938 2.972656 24.398438 2.738281 25 2.738281 M 25 0.621094 C 23.882812 0.621094 22.765625 1.046875 21.914062 1.898438 L 17.957031 5.859375 L 22.855469 10.757812 C 23.523438 10.367188 24.269531 10.167969 25.019531 10.167969 C 26.097656 10.167969 27.171875 10.578125 27.996094 11.402344 C 29.394531 12.796875 29.597656 14.917969 28.640625 16.539062 L 33.457031 21.355469 C 34.121094 20.96875 34.871094 20.769531 35.621094 20.769531 C 36.695312 20.769531 37.773438 21.179688 38.597656 22.003906 C 40.253906 23.660156 40.253906 26.339844 38.597656 27.996094 C 37.769531 28.824219 36.683594 29.238281 35.601562 29.238281 C 34.515625 29.238281 33.429688 28.824219 32.601562 27.996094 C 31.207031 26.601562 31.003906 24.480469 31.960938 22.855469 L 27.144531 18.039062 C 26.800781 18.242188 26.4375 18.390625 26.058594 18.488281 L 26.058594 31.507812 C 27.886719 31.980469 29.238281 33.625 29.238281 35.601562 C 29.238281 37.945312 27.34375 39.839844 25 39.839844 C 22.660156 39.839844 20.761719 37.945312 20.761719 35.601562 C 20.761719 33.625 22.113281 31.980469 23.941406 31.507812 L 23.941406 18.488281 C 23.230469 18.304688 22.558594 17.953125 22.003906 17.398438 C 20.605469 16.003906 20.402344 13.882812 21.359375 12.257812 L 16.457031 7.355469 L 1.898438 21.914062 C 0.195312 23.617188 0.195312 26.382812 1.898438 28.085938 L 21.914062 48.101562 C 22.765625 48.953125 23.882812 49.378906 25 49.378906 C 26.117188 49.378906 27.234375 48.953125 28.085938 48.101562 L 48.101562 28.085938 C 49.804688 26.382812 49.804688 23.617188 48.101562 21.914062 L 28.085938 1.898438 C 27.234375 1.046875 26.117188 0.621094 25 0.621094 Z M 25 0.621094 "/>
</g>
</svg>
