<?xml version="1.0" encoding="UTF-8"?>
<svg xmlns="http://www.w3.org/2000/svg" xmlns:xlink="http://www.w3.org/1999/xlink" viewBox="0 0 50 50" width="50px" height="50px">
<g id="surface33092861">
<path style=" stroke:none;fill-rule:nonzero;fill:rgb(100%,100%,100%);fill-opacity:1;" d="M 46.691406 0.738281 C 46.488281 0.515625 46.203125 0.390625 45.902344 0.390625 L 4.097656 0.390625 C 3.796875 0.390625 3.511719 0.515625 3.308594 0.738281 C 3.105469 0.960938 3.003906 1.257812 3.03125 1.554688 L 6.796875 43.742188 C 6.835938 44.183594 7.144531 44.554688 7.570312 44.675781 L 24.699219 49.570312 C 24.796875 49.597656 24.894531 49.609375 24.992188 49.609375 C 25.09375 49.609375 25.191406 49.597656 25.285156 49.570312 L 42.433594 44.675781 C 42.859375 44.554688 43.164062 44.183594 43.203125 43.742188 L 46.96875 1.554688 C 46.996094 1.257812 46.894531 0.960938 46.691406 0.738281 Z M 11.089844 29.285156 L 18.578125 31.363281 L 18.578125 10.019531 L 22.859375 10.019531 L 22.859375 37.839844 L 11.089844 34.574219 Z M 38.96875 21.789062 L 37.839844 34.898438 L 27.140625 37.839844 L 27.140625 32.917969 L 34.363281 30.933594 L 34.628906 26.917969 L 27.140625 28.210938 L 27.140625 10.019531 L 39.980469 10.019531 L 39.609375 14.300781 L 31.421875 14.300781 L 31.421875 22.859375 Z M 38.96875 21.789062 "/>
</g>
</svg>
